<svg xmlns="http://www.w3.org/2000/svg" version="1.1" xmlns:xlink="http://www.w3.org/1999/xlink" width="512" height="512" x="0" y="0" viewBox="0 0 90 90" style="enable-background:new 0 0 512 512" xml:space="preserve" class=""><g><path fill-rule="evenodd" d="M35.217 59.015h19.65c1.188 0 2.156.525 2.438 1.719l.756 3.246c.535 2.468-1.85 3.906-4.355 3.906H36.377c-2.51 0-4.895-1.438-4.359-3.906l.762-3.246c.281-1.193 1.243-1.719 2.437-1.719zm33.019-4.229c.906.027 1.703.667 1.959 1.907.334 1.646.725 4.901-1.109 5.974-1.51.879-4.678 1.51-6.369 1.917-1.625.391-2.031-1.136-1.465-3.417 1.053-4.235 3.434-5.13 6.053-6.203.312-.131.631-.188.931-.178zm-46.39 0c.303-.01.621.047.934.177 2.619 1.073 5 1.968 6.051 6.203.568 2.281.156 3.808-1.463 3.417-1.693-.407-4.859-1.038-6.369-1.917-1.834-1.072-1.443-4.328-1.109-5.974.249-1.239 1.046-1.879 1.956-1.906zm1.515-34.874h43.428c.984 7.364 1.541 15.046 1.541 21.369H21.82c0-6.323.557-14.005 1.541-21.369zm3.575-9.651c-3.949 0-6.303 3.271-7.125 7.129-1.016 4.751-1.797 13.896-2.313 22.317h-1.824l.313-6.421a1.136 1.136 0 0 0-1.15-1.219c-2.078 0-4.822-.197-5 3.369l-.328 6.631a1.135 1.135 0 0 0 1.15 1.213h6.631c-.318 5.891-.49 11.011-.49 13.339v12.938c0 2.822.516 4.073 3.037 5.532v2.744c0 1.084.869 1.953 1.953 1.953h5.547c1.084 0 1.979-.869 1.959-1.953v-2.744H60.79v2.744c-.021 1.084.875 1.953 1.959 1.953h5.547a1.947 1.947 0 0 0 1.953-1.953v-2.744c2.52-1.459 3.035-2.709 3.035-5.532V56.62c0-2.328-.172-7.448-.488-13.339h6.625a1.13 1.13 0 0 0 1.15-1.213l-.322-6.631c-.178-3.566-2.922-3.369-5-3.369a1.14 1.14 0 0 0-1.156 1.219l.316 6.421h-1.822c-.516-8.421-1.297-17.566-2.313-22.317-.822-3.858-3.178-7.129-7.125-7.129H26.936z" clip-rule="evenodd" fill="#ffffff" opacity="1" data-original="#000000"></path></g></svg>