<svg xmlns="http://www.w3.org/2000/svg" xmlns:xlink="http://www.w3.org/1999/xlink" width="500" zoomAndPan="magnify" viewBox="0 0 375 83.249999" height="111" preserveAspectRatio="xMidYMid meet" version="1.2"><defs><clipPath id="30582076da"><path d="M 1.675781 0 L 84.328125 0 L 84.328125 82.507812 L 1.675781 82.507812 Z M 1.675781 0 "/></clipPath><clipPath id="4941f08e41"><path d="M 18.234375 15.566406 L 67.972656 15.566406 L 67.972656 66.765625 L 18.234375 66.765625 Z M 18.234375 15.566406 "/></clipPath></defs><g id="fb52334232"><g clip-rule="nonzero" clip-path="url(#30582076da)"><path style=" stroke:none;fill-rule:nonzero;fill:#434345;fill-opacity:1;" d="M 42.925781 58.265625 C 33.53125 58.265625 25.914062 50.648438 25.914062 41.253906 C 25.914062 31.855469 33.53125 24.238281 42.925781 24.238281 C 52.324219 24.238281 59.941406 31.855469 59.941406 41.253906 C 59.941406 50.648438 52.324219 58.265625 42.925781 58.265625 Z M 81.949219 33.296875 L 74.332031 32.394531 C 73.644531 29.949219 72.667969 27.566406 71.398438 25.304688 L 76.144531 19.28125 C 76.9375 18.277344 76.851562 16.839844 75.949219 15.9375 L 68.242188 8.230469 C 67.339844 7.324219 65.902344 7.242188 64.894531 8.03125 L 58.875 12.777344 C 56.613281 11.507812 54.230469 10.53125 51.78125 9.84375 L 50.882812 2.226562 C 50.730469 0.957031 49.652344 0 48.375 0 L 37.476562 0 C 36.199219 0 35.121094 0.957031 34.972656 2.226562 L 34.070312 9.84375 C 31.621094 10.53125 29.242188 11.507812 26.976562 12.777344 L 20.957031 8.03125 C 19.953125 7.242188 18.511719 7.324219 17.609375 8.230469 L 9.902344 15.9375 C 9 16.839844 8.914062 18.277344 9.707031 19.28125 L 14.453125 25.304688 C 13.183594 27.566406 12.207031 29.949219 11.519531 32.394531 L 3.902344 33.296875 C 2.628906 33.449219 1.675781 34.523438 1.675781 35.804688 L 1.675781 46.699219 C 1.675781 47.980469 2.628906 49.054688 3.902344 49.207031 L 11.519531 50.109375 C 12.207031 52.554688 13.183594 54.9375 14.453125 57.203125 L 9.707031 63.222656 C 8.914062 64.226562 9 65.664062 9.902344 66.570312 L 17.609375 74.273438 C 18.511719 75.179688 19.953125 75.265625 20.957031 74.472656 L 26.976562 69.726562 C 29.242188 70.996094 31.621094 71.972656 34.070312 72.660156 L 34.972656 80.277344 C 35.121094 81.546875 36.199219 82.503906 37.476562 82.503906 L 48.195312 82.503906 C 49.449219 82.503906 50.515625 81.582031 50.691406 80.335938 L 51.78125 72.660156 C 54.230469 71.972656 56.613281 70.996094 58.875 69.726562 L 64.894531 74.472656 C 65.902344 75.265625 67.339844 75.179688 68.242188 74.273438 L 75.949219 66.570312 C 76.851562 65.664062 76.9375 64.226562 76.144531 63.222656 L 71.398438 57.203125 C 72.667969 54.9375 73.644531 52.554688 74.332031 50.109375 L 81.949219 49.207031 C 83.222656 49.054688 84.179688 47.980469 84.179688 46.699219 L 84.179688 35.804688 C 84.179688 34.523438 83.222656 33.449219 81.949219 33.296875 "/></g><g clip-rule="nonzero" clip-path="url(#4941f08e41)"><path style=" stroke:none;fill-rule:nonzero;fill:#d84040;fill-opacity:1;" d="M 65.570312 15.722656 L 63.359375 17.234375 C 51.800781 25.136719 39.964844 41.5 34.058594 54.800781 C 33.148438 53.523438 32.871094 53.101562 31.988281 51.683594 C 28.378906 46.808594 23.800781 42.625 21.628906 41.082031 L 18.234375 42.5 L 18.34375 42.699219 C 20.683594 45.265625 24.796875 50.953125 30.992188 63.488281 C 31.375 64.03125 31.777344 64.5625 32.238281 65.058594 C 33.453125 66.355469 34.695312 66.628906 35.523438 66.628906 C 35.527344 66.628906 35.527344 66.628906 35.527344 66.628906 C 37.890625 66.628906 39.285156 64.761719 40.246094 62.578125 C 46.453125 39.550781 61.121094 23.699219 67.460938 18.273438 Z M 65.570312 15.722656 "/></g><g style="fill:#d84040;fill-opacity:1;"><g transform="translate(91.440228, 37.010491)"><path style="stroke:none" d="M 1.921875 0 L 1.921875 -15.265625 L 5.15625 -15.265625 L 5.15625 0 Z M 1.921875 0 "/></g></g><g style="fill:#d84040;fill-opacity:1;"><g transform="translate(97.903223, 37.010491)"><path style="stroke:none" d="M 8.296875 -11.890625 C 9.546875 -11.890625 10.550781 -11.550781 11.3125 -10.875 C 12.070312 -10.195312 12.453125 -9.109375 12.453125 -7.609375 L 12.453125 0 L 9.265625 0 L 9.265625 -6.828125 C 9.265625 -7.660156 9.113281 -8.285156 8.8125 -8.703125 C 8.507812 -9.128906 8.035156 -9.34375 7.390625 -9.34375 C 6.410156 -9.34375 5.742188 -9.007812 5.390625 -8.34375 C 5.035156 -7.6875 4.859375 -6.738281 4.859375 -5.5 L 4.859375 0 L 1.671875 0 L 1.671875 -11.671875 L 4.109375 -11.671875 L 4.53125 -10.1875 L 4.703125 -10.1875 C 4.960938 -10.59375 5.273438 -10.921875 5.640625 -11.171875 C 6.015625 -11.421875 6.429688 -11.601562 6.890625 -11.71875 C 7.347656 -11.832031 7.816406 -11.890625 8.296875 -11.890625 Z M 8.296875 -11.890625 "/></g></g><g style="fill:#d84040;fill-opacity:1;"><g transform="translate(111.345228, 37.010491)"><path style="stroke:none" d="M 9.8125 -3.46875 C 9.8125 -2.675781 9.625 -2.003906 9.25 -1.453125 C 8.882812 -0.910156 8.332031 -0.5 7.59375 -0.21875 C 6.851562 0.0625 5.929688 0.203125 4.828125 0.203125 C 4.015625 0.203125 3.316406 0.148438 2.734375 0.046875 C 2.160156 -0.0546875 1.578125 -0.226562 0.984375 -0.46875 L 0.984375 -3.109375 C 1.617188 -2.816406 2.296875 -2.578125 3.015625 -2.390625 C 3.742188 -2.210938 4.382812 -2.125 4.9375 -2.125 C 5.5625 -2.125 6.003906 -2.210938 6.265625 -2.390625 C 6.535156 -2.578125 6.671875 -2.820312 6.671875 -3.125 C 6.671875 -3.320312 6.613281 -3.5 6.5 -3.65625 C 6.394531 -3.8125 6.164062 -3.988281 5.8125 -4.1875 C 5.457031 -4.382812 4.898438 -4.644531 4.140625 -4.96875 C 3.410156 -5.269531 2.8125 -5.578125 2.34375 -5.890625 C 1.875 -6.203125 1.523438 -6.570312 1.296875 -7 C 1.066406 -7.425781 0.953125 -7.972656 0.953125 -8.640625 C 0.953125 -9.710938 1.375 -10.519531 2.21875 -11.0625 C 3.0625 -11.613281 4.1875 -11.890625 5.59375 -11.890625 C 6.3125 -11.890625 7 -11.816406 7.65625 -11.671875 C 8.3125 -11.523438 8.988281 -11.296875 9.6875 -10.984375 L 8.734375 -8.671875 C 8.148438 -8.929688 7.601562 -9.140625 7.09375 -9.296875 C 6.582031 -9.453125 6.0625 -9.53125 5.53125 -9.53125 C 5.0625 -9.53125 4.707031 -9.46875 4.46875 -9.34375 C 4.238281 -9.21875 4.125 -9.03125 4.125 -8.78125 C 4.125 -8.582031 4.179688 -8.410156 4.296875 -8.265625 C 4.421875 -8.117188 4.660156 -7.957031 5.015625 -7.78125 C 5.367188 -7.601562 5.882812 -7.378906 6.5625 -7.109375 C 7.226562 -6.828125 7.804688 -6.539062 8.296875 -6.25 C 8.785156 -5.957031 9.160156 -5.59375 9.421875 -5.15625 C 9.679688 -4.71875 9.8125 -4.15625 9.8125 -3.46875 Z M 9.8125 -3.46875 "/></g></g><g style="fill:#d84040;fill-opacity:1;"><g transform="translate(121.360414, 37.010491)"><path style="stroke:none" d="M 8.171875 -11.890625 C 9.484375 -11.890625 10.546875 -11.378906 11.359375 -10.359375 C 12.171875 -9.335938 12.578125 -7.835938 12.578125 -5.859375 C 12.578125 -4.535156 12.382812 -3.421875 12 -2.515625 C 11.613281 -1.617188 11.082031 -0.941406 10.40625 -0.484375 C 9.738281 -0.0234375 8.960938 0.203125 8.078125 0.203125 C 7.515625 0.203125 7.03125 0.132812 6.625 0 C 6.226562 -0.144531 5.882812 -0.328125 5.59375 -0.546875 C 5.3125 -0.773438 5.066406 -1.019531 4.859375 -1.28125 L 4.6875 -1.28125 C 4.738281 -1 4.78125 -0.710938 4.8125 -0.421875 C 4.84375 -0.128906 4.859375 0.148438 4.859375 0.421875 L 4.859375 5.140625 L 1.671875 5.140625 L 1.671875 -11.671875 L 4.265625 -11.671875 L 4.703125 -10.15625 L 4.859375 -10.15625 C 5.066406 -10.46875 5.316406 -10.753906 5.609375 -11.015625 C 5.910156 -11.285156 6.269531 -11.5 6.6875 -11.65625 C 7.113281 -11.8125 7.609375 -11.890625 8.171875 -11.890625 Z M 7.140625 -9.34375 C 6.585938 -9.34375 6.144531 -9.226562 5.8125 -9 C 5.488281 -8.769531 5.25 -8.425781 5.09375 -7.96875 C 4.945312 -7.507812 4.867188 -6.925781 4.859375 -6.21875 L 4.859375 -5.875 C 4.859375 -5.125 4.925781 -4.488281 5.0625 -3.96875 C 5.207031 -3.445312 5.445312 -3.050781 5.78125 -2.78125 C 6.125 -2.507812 6.59375 -2.375 7.1875 -2.375 C 7.675781 -2.375 8.078125 -2.507812 8.390625 -2.78125 C 8.703125 -3.050781 8.9375 -3.445312 9.09375 -3.96875 C 9.25 -4.5 9.328125 -5.144531 9.328125 -5.90625 C 9.328125 -7.039062 9.148438 -7.894531 8.796875 -8.46875 C 8.441406 -9.050781 7.890625 -9.34375 7.140625 -9.34375 Z M 7.140625 -9.34375 "/></g></g><g style="fill:#d84040;fill-opacity:1;"><g transform="translate(134.280038, 37.010491)"><path style="stroke:none" d="M 6.484375 -11.890625 C 7.566406 -11.890625 8.492188 -11.679688 9.265625 -11.265625 C 10.046875 -10.859375 10.648438 -10.257812 11.078125 -9.46875 C 11.503906 -8.6875 11.71875 -7.726562 11.71875 -6.59375 L 11.71875 -5.046875 L 4.1875 -5.046875 C 4.21875 -4.148438 4.484375 -3.441406 4.984375 -2.921875 C 5.492188 -2.410156 6.203125 -2.15625 7.109375 -2.15625 C 7.847656 -2.15625 8.523438 -2.234375 9.140625 -2.390625 C 9.765625 -2.546875 10.40625 -2.773438 11.0625 -3.078125 L 11.0625 -0.609375 C 10.476562 -0.328125 9.867188 -0.125 9.234375 0 C 8.609375 0.132812 7.847656 0.203125 6.953125 0.203125 C 5.785156 0.203125 4.75 -0.0078125 3.84375 -0.4375 C 2.945312 -0.875 2.238281 -1.53125 1.71875 -2.40625 C 1.207031 -3.289062 0.953125 -4.40625 0.953125 -5.75 C 0.953125 -7.113281 1.179688 -8.25 1.640625 -9.15625 C 2.109375 -10.070312 2.753906 -10.753906 3.578125 -11.203125 C 4.410156 -11.660156 5.378906 -11.890625 6.484375 -11.890625 Z M 6.5 -9.625 C 5.882812 -9.625 5.375 -9.425781 4.96875 -9.03125 C 4.5625 -8.632812 4.328125 -8.015625 4.265625 -7.171875 L 8.734375 -7.171875 C 8.722656 -7.640625 8.632812 -8.054688 8.46875 -8.421875 C 8.3125 -8.796875 8.070312 -9.085938 7.75 -9.296875 C 7.425781 -9.515625 7.007812 -9.625 6.5 -9.625 Z M 6.5 -9.625 "/></g></g><g style="fill:#d84040;fill-opacity:1;"><g transform="translate(146.301167, 37.010491)"><path style="stroke:none" d="M 6.40625 0.203125 C 5.25 0.203125 4.265625 -0.00390625 3.453125 -0.421875 C 2.640625 -0.847656 2.019531 -1.5 1.59375 -2.375 C 1.164062 -3.257812 0.953125 -4.394531 0.953125 -5.78125 C 0.953125 -7.207031 1.191406 -8.367188 1.671875 -9.265625 C 2.160156 -10.171875 2.835938 -10.832031 3.703125 -11.25 C 4.566406 -11.675781 5.5625 -11.890625 6.6875 -11.890625 C 7.5 -11.890625 8.195312 -11.8125 8.78125 -11.65625 C 9.375 -11.5 9.890625 -11.316406 10.328125 -11.109375 L 9.390625 -8.640625 C 8.890625 -8.835938 8.421875 -9 7.984375 -9.125 C 7.554688 -9.257812 7.125 -9.328125 6.6875 -9.328125 C 6.132812 -9.328125 5.671875 -9.195312 5.296875 -8.9375 C 4.929688 -8.675781 4.65625 -8.285156 4.46875 -7.765625 C 4.289062 -7.242188 4.203125 -6.585938 4.203125 -5.796875 C 4.203125 -5.023438 4.300781 -4.382812 4.5 -3.875 C 4.695312 -3.363281 4.976562 -2.984375 5.34375 -2.734375 C 5.71875 -2.492188 6.164062 -2.375 6.6875 -2.375 C 7.351562 -2.375 7.941406 -2.460938 8.453125 -2.640625 C 8.972656 -2.816406 9.476562 -3.066406 9.96875 -3.390625 L 9.96875 -0.65625 C 9.476562 -0.351562 8.96875 -0.132812 8.4375 0 C 7.90625 0.132812 7.226562 0.203125 6.40625 0.203125 Z M 6.40625 0.203125 "/></g></g><g style="fill:#d84040;fill-opacity:1;"><g transform="translate(156.682019, 37.010491)"><path style="stroke:none" d="M 6.59375 -2.328125 C 6.9375 -2.328125 7.273438 -2.359375 7.609375 -2.421875 C 7.941406 -2.492188 8.269531 -2.582031 8.59375 -2.6875 L 8.59375 -0.328125 C 8.25 -0.171875 7.820312 -0.046875 7.3125 0.046875 C 6.8125 0.148438 6.265625 0.203125 5.671875 0.203125 C 4.972656 0.203125 4.347656 0.09375 3.796875 -0.125 C 3.242188 -0.351562 2.804688 -0.75 2.484375 -1.3125 C 2.171875 -1.875 2.015625 -2.65625 2.015625 -3.65625 L 2.015625 -9.28125 L 0.484375 -9.28125 L 0.484375 -10.625 L 2.25 -11.703125 L 3.171875 -14.15625 L 5.203125 -14.15625 L 5.203125 -11.671875 L 8.46875 -11.671875 L 8.46875 -9.28125 L 5.203125 -9.28125 L 5.203125 -3.65625 C 5.203125 -3.207031 5.328125 -2.875 5.578125 -2.65625 C 5.835938 -2.4375 6.175781 -2.328125 6.59375 -2.328125 Z M 6.953125 1.3125 L 6.953125 1.515625 C 6.816406 1.828125 6.65625 2.160156 6.46875 2.515625 C 6.289062 2.867188 6.097656 3.226562 5.890625 3.59375 C 5.679688 3.96875 5.457031 4.347656 5.21875 4.734375 L 3.359375 4.734375 L 3.359375 4.453125 C 3.441406 4.171875 3.523438 3.84375 3.609375 3.46875 C 3.691406 3.09375 3.769531 2.710938 3.84375 2.328125 C 3.914062 1.953125 3.96875 1.613281 4 1.3125 Z M 6.953125 1.3125 "/></g></g><g style="fill:#d84040;fill-opacity:1;"><g transform="translate(165.349462, 37.010491)"><path style="stroke:none" d="M 4.859375 -11.671875 L 4.859375 0 L 1.671875 0 L 1.671875 -11.671875 Z M 3.265625 -16.25 C 3.742188 -16.25 4.148438 -16.140625 4.484375 -15.921875 C 4.828125 -15.703125 5 -15.296875 5 -14.703125 C 5 -14.109375 4.828125 -13.695312 4.484375 -13.46875 C 4.148438 -13.238281 3.742188 -13.125 3.265625 -13.125 C 2.785156 -13.125 2.375 -13.238281 2.03125 -13.46875 C 1.695312 -13.695312 1.53125 -14.109375 1.53125 -14.703125 C 1.53125 -15.296875 1.695312 -15.703125 2.03125 -15.921875 C 2.375 -16.140625 2.785156 -16.25 3.265625 -16.25 Z M 3.265625 -16.25 "/></g></g><g style="fill:#d84040;fill-opacity:1;"><g transform="translate(171.258733, 37.010491)"><path style="stroke:none" d="M 6.484375 -11.890625 C 7.566406 -11.890625 8.492188 -11.679688 9.265625 -11.265625 C 10.046875 -10.859375 10.648438 -10.257812 11.078125 -9.46875 C 11.503906 -8.6875 11.71875 -7.726562 11.71875 -6.59375 L 11.71875 -5.046875 L 4.1875 -5.046875 C 4.21875 -4.148438 4.484375 -3.441406 4.984375 -2.921875 C 5.492188 -2.410156 6.203125 -2.15625 7.109375 -2.15625 C 7.847656 -2.15625 8.523438 -2.234375 9.140625 -2.390625 C 9.765625 -2.546875 10.40625 -2.773438 11.0625 -3.078125 L 11.0625 -0.609375 C 10.476562 -0.328125 9.867188 -0.125 9.234375 0 C 8.609375 0.132812 7.847656 0.203125 6.953125 0.203125 C 5.785156 0.203125 4.75 -0.0078125 3.84375 -0.4375 C 2.945312 -0.875 2.238281 -1.53125 1.71875 -2.40625 C 1.207031 -3.289062 0.953125 -4.40625 0.953125 -5.75 C 0.953125 -7.113281 1.179688 -8.25 1.640625 -9.15625 C 2.109375 -10.070312 2.753906 -10.753906 3.578125 -11.203125 C 4.410156 -11.660156 5.378906 -11.890625 6.484375 -11.890625 Z M 6.5 -9.625 C 5.882812 -9.625 5.375 -9.425781 4.96875 -9.03125 C 4.5625 -8.632812 4.328125 -8.015625 4.265625 -7.171875 L 8.734375 -7.171875 C 8.722656 -7.640625 8.632812 -8.054688 8.46875 -8.421875 C 8.3125 -8.796875 8.070312 -9.085938 7.75 -9.296875 C 7.425781 -9.515625 7.007812 -9.625 6.5 -9.625 Z M 6.5 -9.625 "/></g></g><g style="fill:#d84040;fill-opacity:1;"><g transform="translate(183.279862, 37.010491)"><path style="stroke:none" d=""/></g></g><g style="fill:#d84040;fill-opacity:1;"><g transform="translate(188.217505, 37.010491)"><path style="stroke:none" d="M 7.8125 0 L 4.578125 0 L 4.578125 -12.578125 L 0.421875 -12.578125 L 0.421875 -15.265625 L 11.953125 -15.265625 L 11.953125 -12.578125 L 7.8125 -12.578125 Z M 7.8125 0 "/></g></g><g style="fill:#d84040;fill-opacity:1;"><g transform="translate(199.987891, 37.010491)"><path style="stroke:none" d="M 6.484375 -11.890625 C 7.566406 -11.890625 8.492188 -11.679688 9.265625 -11.265625 C 10.046875 -10.859375 10.648438 -10.257812 11.078125 -9.46875 C 11.503906 -8.6875 11.71875 -7.726562 11.71875 -6.59375 L 11.71875 -5.046875 L 4.1875 -5.046875 C 4.21875 -4.148438 4.484375 -3.441406 4.984375 -2.921875 C 5.492188 -2.410156 6.203125 -2.15625 7.109375 -2.15625 C 7.847656 -2.15625 8.523438 -2.234375 9.140625 -2.390625 C 9.765625 -2.546875 10.40625 -2.773438 11.0625 -3.078125 L 11.0625 -0.609375 C 10.476562 -0.328125 9.867188 -0.125 9.234375 0 C 8.609375 0.132812 7.847656 0.203125 6.953125 0.203125 C 5.785156 0.203125 4.75 -0.0078125 3.84375 -0.4375 C 2.945312 -0.875 2.238281 -1.53125 1.71875 -2.40625 C 1.207031 -3.289062 0.953125 -4.40625 0.953125 -5.75 C 0.953125 -7.113281 1.179688 -8.25 1.640625 -9.15625 C 2.109375 -10.070312 2.753906 -10.753906 3.578125 -11.203125 C 4.410156 -11.660156 5.378906 -11.890625 6.484375 -11.890625 Z M 6.5 -9.625 C 5.882812 -9.625 5.375 -9.425781 4.96875 -9.03125 C 4.5625 -8.632812 4.328125 -8.015625 4.265625 -7.171875 L 8.734375 -7.171875 C 8.722656 -7.640625 8.632812 -8.054688 8.46875 -8.421875 C 8.3125 -8.796875 8.070312 -9.085938 7.75 -9.296875 C 7.425781 -9.515625 7.007812 -9.625 6.5 -9.625 Z M 6.5 -9.625 "/></g></g><g style="fill:#d84040;fill-opacity:1;"><g transform="translate(212.009019, 37.010491)"><path style="stroke:none" d="M 4.859375 -16.25 L 4.859375 -12.9375 C 4.859375 -12.363281 4.835938 -11.8125 4.796875 -11.28125 C 4.753906 -10.757812 4.722656 -10.394531 4.703125 -10.1875 L 4.875 -10.1875 C 5.125 -10.59375 5.421875 -10.921875 5.765625 -11.171875 C 6.109375 -11.421875 6.488281 -11.601562 6.90625 -11.71875 C 7.332031 -11.832031 7.785156 -11.890625 8.265625 -11.890625 C 9.109375 -11.890625 9.84375 -11.742188 10.46875 -11.453125 C 11.09375 -11.160156 11.578125 -10.695312 11.921875 -10.0625 C 12.273438 -9.4375 12.453125 -8.617188 12.453125 -7.609375 L 12.453125 0 L 9.265625 0 L 9.265625 -6.828125 C 9.265625 -7.660156 9.109375 -8.285156 8.796875 -8.703125 C 8.492188 -9.128906 8.023438 -9.34375 7.390625 -9.34375 C 6.742188 -9.34375 6.234375 -9.191406 5.859375 -8.890625 C 5.492188 -8.597656 5.234375 -8.164062 5.078125 -7.59375 C 4.929688 -7.019531 4.859375 -6.320312 4.859375 -5.5 L 4.859375 0 L 1.671875 0 L 1.671875 -16.25 Z M 4.859375 -16.25 "/></g></g><g style="fill:#d84040;fill-opacity:1;"><g transform="translate(225.451024, 37.010491)"><path style="stroke:none" d="M 8.296875 -11.890625 C 9.546875 -11.890625 10.550781 -11.550781 11.3125 -10.875 C 12.070312 -10.195312 12.453125 -9.109375 12.453125 -7.609375 L 12.453125 0 L 9.265625 0 L 9.265625 -6.828125 C 9.265625 -7.660156 9.113281 -8.285156 8.8125 -8.703125 C 8.507812 -9.128906 8.035156 -9.34375 7.390625 -9.34375 C 6.410156 -9.34375 5.742188 -9.007812 5.390625 -8.34375 C 5.035156 -7.6875 4.859375 -6.738281 4.859375 -5.5 L 4.859375 0 L 1.671875 0 L 1.671875 -11.671875 L 4.109375 -11.671875 L 4.53125 -10.1875 L 4.703125 -10.1875 C 4.960938 -10.59375 5.273438 -10.921875 5.640625 -11.171875 C 6.015625 -11.421875 6.429688 -11.601562 6.890625 -11.71875 C 7.347656 -11.832031 7.816406 -11.890625 8.296875 -11.890625 Z M 8.296875 -11.890625 "/></g></g><g style="fill:#d84040;fill-opacity:1;"><g transform="translate(238.893029, 37.010491)"><path style="stroke:none" d="M 4.859375 -11.671875 L 4.859375 0 L 1.671875 0 L 1.671875 -11.671875 Z M 3.265625 -16.25 C 3.742188 -16.25 4.148438 -16.140625 4.484375 -15.921875 C 4.828125 -15.703125 5 -15.296875 5 -14.703125 C 5 -14.109375 4.828125 -13.695312 4.484375 -13.46875 C 4.148438 -13.238281 3.742188 -13.125 3.265625 -13.125 C 2.785156 -13.125 2.375 -13.238281 2.03125 -13.46875 C 1.695312 -13.695312 1.53125 -14.109375 1.53125 -14.703125 C 1.53125 -15.296875 1.695312 -15.703125 2.03125 -15.921875 C 2.375 -16.140625 2.785156 -16.25 3.265625 -16.25 Z M 3.265625 -16.25 "/></g></g><g style="fill:#d84040;fill-opacity:1;"><g transform="translate(244.8023, 37.010491)"><path style="stroke:none" d="M 6.40625 0.203125 C 5.25 0.203125 4.265625 -0.00390625 3.453125 -0.421875 C 2.640625 -0.847656 2.019531 -1.5 1.59375 -2.375 C 1.164062 -3.257812 0.953125 -4.394531 0.953125 -5.78125 C 0.953125 -7.207031 1.191406 -8.367188 1.671875 -9.265625 C 2.160156 -10.171875 2.835938 -10.832031 3.703125 -11.25 C 4.566406 -11.675781 5.5625 -11.890625 6.6875 -11.890625 C 7.5 -11.890625 8.195312 -11.8125 8.78125 -11.65625 C 9.375 -11.5 9.890625 -11.316406 10.328125 -11.109375 L 9.390625 -8.640625 C 8.890625 -8.835938 8.421875 -9 7.984375 -9.125 C 7.554688 -9.257812 7.125 -9.328125 6.6875 -9.328125 C 6.132812 -9.328125 5.671875 -9.195312 5.296875 -8.9375 C 4.929688 -8.675781 4.65625 -8.285156 4.46875 -7.765625 C 4.289062 -7.242188 4.203125 -6.585938 4.203125 -5.796875 C 4.203125 -5.023438 4.300781 -4.382812 4.5 -3.875 C 4.695312 -3.363281 4.976562 -2.984375 5.34375 -2.734375 C 5.71875 -2.492188 6.164062 -2.375 6.6875 -2.375 C 7.351562 -2.375 7.941406 -2.460938 8.453125 -2.640625 C 8.972656 -2.816406 9.476562 -3.066406 9.96875 -3.390625 L 9.96875 -0.65625 C 9.476562 -0.351562 8.96875 -0.132812 8.4375 0 C 7.90625 0.132812 7.226562 0.203125 6.40625 0.203125 Z M 6.40625 0.203125 "/></g></g><g style="fill:#d84040;fill-opacity:1;"><g transform="translate(255.183153, 37.010491)"><path style="stroke:none" d="M 6.453125 -11.921875 C 8.023438 -11.921875 9.226562 -11.578125 10.0625 -10.890625 C 10.894531 -10.210938 11.3125 -9.175781 11.3125 -7.78125 L 11.3125 0 L 9.09375 0 L 8.46875 -1.59375 L 8.390625 -1.59375 C 8.054688 -1.164062 7.710938 -0.820312 7.359375 -0.5625 C 7.015625 -0.300781 6.613281 -0.109375 6.15625 0.015625 C 5.707031 0.140625 5.160156 0.203125 4.515625 0.203125 C 3.828125 0.203125 3.207031 0.0703125 2.65625 -0.1875 C 2.113281 -0.445312 1.679688 -0.847656 1.359375 -1.390625 C 1.046875 -1.941406 0.890625 -2.640625 0.890625 -3.484375 C 0.890625 -4.722656 1.328125 -5.632812 2.203125 -6.21875 C 3.078125 -6.8125 4.382812 -7.140625 6.125 -7.203125 L 8.140625 -7.265625 L 8.140625 -7.78125 C 8.140625 -8.394531 7.976562 -8.84375 7.65625 -9.125 C 7.34375 -9.414062 6.898438 -9.5625 6.328125 -9.5625 C 5.765625 -9.5625 5.210938 -9.476562 4.671875 -9.3125 C 4.128906 -9.15625 3.585938 -8.953125 3.046875 -8.703125 L 1.984375 -10.859375 C 2.597656 -11.191406 3.289062 -11.453125 4.0625 -11.640625 C 4.832031 -11.828125 5.628906 -11.921875 6.453125 -11.921875 Z M 8.140625 -5.40625 L 6.921875 -5.375 C 5.890625 -5.34375 5.171875 -5.15625 4.765625 -4.8125 C 4.367188 -4.46875 4.171875 -4.019531 4.171875 -3.46875 C 4.171875 -2.976562 4.3125 -2.628906 4.59375 -2.421875 C 4.882812 -2.222656 5.257812 -2.125 5.71875 -2.125 C 6.394531 -2.125 6.96875 -2.320312 7.4375 -2.71875 C 7.90625 -3.125 8.140625 -3.703125 8.140625 -4.453125 Z M 10.625 -16.484375 C 10.582031 -15.796875 10.378906 -15.1875 10.015625 -14.65625 C 9.660156 -14.125 9.179688 -13.707031 8.578125 -13.40625 C 7.972656 -13.113281 7.273438 -12.96875 6.484375 -12.96875 C 5.253906 -12.96875 4.28125 -13.285156 3.5625 -13.921875 C 2.851562 -14.566406 2.472656 -15.421875 2.421875 -16.484375 L 4.1875 -16.484375 C 4.226562 -16.085938 4.351562 -15.796875 4.5625 -15.609375 C 4.78125 -15.429688 5.054688 -15.316406 5.390625 -15.265625 C 5.722656 -15.210938 6.09375 -15.1875 6.5 -15.1875 C 6.832031 -15.1875 7.171875 -15.21875 7.515625 -15.28125 C 7.859375 -15.34375 8.148438 -15.46875 8.390625 -15.65625 C 8.628906 -15.84375 8.769531 -16.117188 8.8125 -16.484375 Z M 10.625 -16.484375 "/></g></g><g style="fill:#d84040;fill-opacity:1;"><g transform="translate(267.486367, 37.010491)"><path style="stroke:none" d=""/></g></g><g style="fill:#d84040;fill-opacity:1;"><g transform="translate(272.42401, 37.010491)"><path style="stroke:none" d="M 6.796875 -15.265625 C 8.765625 -15.265625 10.203125 -14.84375 11.109375 -14 C 12.015625 -13.15625 12.46875 -11.988281 12.46875 -10.5 C 12.46875 -9.832031 12.363281 -9.191406 12.15625 -8.578125 C 11.957031 -7.972656 11.628906 -7.429688 11.171875 -6.953125 C 10.722656 -6.484375 10.117188 -6.113281 9.359375 -5.84375 C 8.597656 -5.570312 7.660156 -5.4375 6.546875 -5.4375 L 5.15625 -5.4375 L 5.15625 0 L 1.921875 0 L 1.921875 -15.265625 Z M 6.625 -12.609375 L 5.15625 -12.609375 L 5.15625 -8.078125 L 6.21875 -8.078125 C 6.832031 -8.078125 7.359375 -8.15625 7.796875 -8.3125 C 8.242188 -8.476562 8.585938 -8.734375 8.828125 -9.078125 C 9.078125 -9.421875 9.203125 -9.859375 9.203125 -10.390625 C 9.203125 -11.140625 8.992188 -11.695312 8.578125 -12.0625 C 8.160156 -12.425781 7.507812 -12.609375 6.625 -12.609375 Z M 6.625 -12.609375 "/></g></g><g style="fill:#d84040;fill-opacity:1;"><g transform="translate(285.239158, 37.010491)"><path style="stroke:none" d="M 6.484375 -11.890625 C 7.566406 -11.890625 8.492188 -11.679688 9.265625 -11.265625 C 10.046875 -10.859375 10.648438 -10.257812 11.078125 -9.46875 C 11.503906 -8.6875 11.71875 -7.726562 11.71875 -6.59375 L 11.71875 -5.046875 L 4.1875 -5.046875 C 4.21875 -4.148438 4.484375 -3.441406 4.984375 -2.921875 C 5.492188 -2.410156 6.203125 -2.15625 7.109375 -2.15625 C 7.847656 -2.15625 8.523438 -2.234375 9.140625 -2.390625 C 9.765625 -2.546875 10.40625 -2.773438 11.0625 -3.078125 L 11.0625 -0.609375 C 10.476562 -0.328125 9.867188 -0.125 9.234375 0 C 8.609375 0.132812 7.847656 0.203125 6.953125 0.203125 C 5.785156 0.203125 4.75 -0.0078125 3.84375 -0.4375 C 2.945312 -0.875 2.238281 -1.53125 1.71875 -2.40625 C 1.207031 -3.289062 0.953125 -4.40625 0.953125 -5.75 C 0.953125 -7.113281 1.179688 -8.25 1.640625 -9.15625 C 2.109375 -10.070312 2.753906 -10.753906 3.578125 -11.203125 C 4.410156 -11.660156 5.378906 -11.890625 6.484375 -11.890625 Z M 6.5 -9.625 C 5.882812 -9.625 5.375 -9.425781 4.96875 -9.03125 C 4.5625 -8.632812 4.328125 -8.015625 4.265625 -7.171875 L 8.734375 -7.171875 C 8.722656 -7.640625 8.632812 -8.054688 8.46875 -8.421875 C 8.3125 -8.796875 8.070312 -9.085938 7.75 -9.296875 C 7.425781 -9.515625 7.007812 -9.625 6.5 -9.625 Z M 6.5 -9.625 "/></g></g><g style="fill:#d84040;fill-opacity:1;"><g transform="translate(297.260287, 37.010491)"><path style="stroke:none" d="M 8.1875 -11.890625 C 8.34375 -11.890625 8.523438 -11.878906 8.734375 -11.859375 C 8.953125 -11.847656 9.128906 -11.828125 9.265625 -11.796875 L 9.03125 -8.8125 C 8.925781 -8.851562 8.773438 -8.878906 8.578125 -8.890625 C 8.390625 -8.910156 8.222656 -8.921875 8.078125 -8.921875 C 7.671875 -8.921875 7.273438 -8.867188 6.890625 -8.765625 C 6.503906 -8.660156 6.15625 -8.488281 5.84375 -8.25 C 5.539062 -8.019531 5.300781 -7.710938 5.125 -7.328125 C 4.945312 -6.953125 4.859375 -6.488281 4.859375 -5.9375 L 4.859375 0 L 1.671875 0 L 1.671875 -11.671875 L 4.078125 -11.671875 L 4.546875 -9.71875 L 4.703125 -9.71875 C 4.941406 -10.113281 5.234375 -10.472656 5.578125 -10.796875 C 5.921875 -11.128906 6.3125 -11.394531 6.75 -11.59375 C 7.195312 -11.789062 7.675781 -11.890625 8.1875 -11.890625 Z M 8.1875 -11.890625 "/></g></g><g style="fill:#d84040;fill-opacity:1;"><g transform="translate(306.356082, 37.010491)"><path style="stroke:none" d="M 4.859375 -11.671875 L 4.859375 0 L 1.671875 0 L 1.671875 -11.671875 Z M 3.265625 -16.25 C 3.742188 -16.25 4.148438 -16.140625 4.484375 -15.921875 C 4.828125 -15.703125 5 -15.296875 5 -14.703125 C 5 -14.109375 4.828125 -13.695312 4.484375 -13.46875 C 4.148438 -13.238281 3.742188 -13.125 3.265625 -13.125 C 2.785156 -13.125 2.375 -13.238281 2.03125 -13.46875 C 1.695312 -13.695312 1.53125 -14.109375 1.53125 -14.703125 C 1.53125 -15.296875 1.695312 -15.703125 2.03125 -15.921875 C 2.375 -16.140625 2.785156 -16.25 3.265625 -16.25 Z M 3.265625 -16.25 "/></g></g><g style="fill:#d84040;fill-opacity:1;"><g transform="translate(312.265353, 37.010491)"><path style="stroke:none" d="M 12.28125 -5.859375 C 12.28125 -4.878906 12.148438 -4.015625 11.890625 -3.265625 C 11.628906 -2.515625 11.25 -1.878906 10.75 -1.359375 C 10.25 -0.835938 9.648438 -0.445312 8.953125 -0.1875 C 8.253906 0.0703125 7.46875 0.203125 6.59375 0.203125 C 5.769531 0.203125 5.015625 0.0703125 4.328125 -0.1875 C 3.640625 -0.445312 3.039062 -0.835938 2.53125 -1.359375 C 2.03125 -1.878906 1.640625 -2.515625 1.359375 -3.265625 C 1.085938 -4.015625 0.953125 -4.878906 0.953125 -5.859375 C 0.953125 -7.148438 1.179688 -8.242188 1.640625 -9.140625 C 2.109375 -10.046875 2.765625 -10.726562 3.609375 -11.1875 C 4.460938 -11.65625 5.476562 -11.890625 6.65625 -11.890625 C 7.75 -11.890625 8.71875 -11.65625 9.5625 -11.1875 C 10.40625 -10.726562 11.066406 -10.046875 11.546875 -9.140625 C 12.035156 -8.242188 12.28125 -7.148438 12.28125 -5.859375 Z M 4.203125 -5.859375 C 4.203125 -5.085938 4.285156 -4.441406 4.453125 -3.921875 C 4.617188 -3.398438 4.878906 -3.003906 5.234375 -2.734375 C 5.597656 -2.472656 6.0625 -2.34375 6.625 -2.34375 C 7.195312 -2.34375 7.65625 -2.472656 8 -2.734375 C 8.351562 -3.003906 8.613281 -3.398438 8.78125 -3.921875 C 8.945312 -4.441406 9.03125 -5.085938 9.03125 -5.859375 C 9.03125 -6.628906 8.945312 -7.269531 8.78125 -7.78125 C 8.613281 -8.289062 8.351562 -8.675781 8 -8.9375 C 7.644531 -9.195312 7.179688 -9.328125 6.609375 -9.328125 C 5.765625 -9.328125 5.148438 -9.035156 4.765625 -8.453125 C 4.390625 -7.878906 4.203125 -7.015625 4.203125 -5.859375 Z M 4.203125 -5.859375 "/></g></g><g style="fill:#d84040;fill-opacity:1;"><g transform="translate(324.892444, 37.010491)"><path style="stroke:none" d="M 5.375 0.203125 C 4.070312 0.203125 3.007812 -0.300781 2.1875 -1.3125 C 1.363281 -2.332031 0.953125 -3.832031 0.953125 -5.8125 C 0.953125 -7.8125 1.367188 -9.320312 2.203125 -10.34375 C 3.035156 -11.375 4.117188 -11.890625 5.453125 -11.890625 C 6.003906 -11.890625 6.492188 -11.8125 6.921875 -11.65625 C 7.347656 -11.507812 7.710938 -11.304688 8.015625 -11.046875 C 8.328125 -10.785156 8.59375 -10.5 8.8125 -10.1875 L 8.921875 -10.1875 C 8.878906 -10.40625 8.828125 -10.734375 8.765625 -11.171875 C 8.703125 -11.609375 8.671875 -12.054688 8.671875 -12.515625 L 8.671875 -16.25 L 11.875 -16.25 L 11.875 0 L 9.4375 0 L 8.8125 -1.515625 L 8.671875 -1.515625 C 8.472656 -1.191406 8.222656 -0.898438 7.921875 -0.640625 C 7.617188 -0.378906 7.257812 -0.171875 6.84375 -0.015625 C 6.425781 0.128906 5.9375 0.203125 5.375 0.203125 Z M 6.484375 -2.328125 C 7.359375 -2.328125 7.972656 -2.585938 8.328125 -3.109375 C 8.691406 -3.628906 8.882812 -4.410156 8.90625 -5.453125 L 8.90625 -5.796875 C 8.90625 -6.929688 8.726562 -7.800781 8.375 -8.40625 C 8.03125 -9.007812 7.382812 -9.3125 6.4375 -9.3125 C 5.726562 -9.3125 5.175781 -9.003906 4.78125 -8.390625 C 4.382812 -7.785156 4.1875 -6.914062 4.1875 -5.78125 C 4.1875 -4.632812 4.382812 -3.769531 4.78125 -3.1875 C 5.1875 -2.613281 5.753906 -2.328125 6.484375 -2.328125 Z M 6.484375 -2.328125 "/></g></g><g style="fill:#d84040;fill-opacity:1;"><g transform="translate(337.812068, 37.010491)"><path style="stroke:none" d="M 4.859375 -11.671875 L 4.859375 0 L 1.671875 0 L 1.671875 -11.671875 Z M 3.265625 -16.25 C 3.742188 -16.25 4.148438 -16.140625 4.484375 -15.921875 C 4.828125 -15.703125 5 -15.296875 5 -14.703125 C 5 -14.109375 4.828125 -13.695312 4.484375 -13.46875 C 4.148438 -13.238281 3.742188 -13.125 3.265625 -13.125 C 2.785156 -13.125 2.375 -13.238281 2.03125 -13.46875 C 1.695312 -13.695312 1.53125 -14.109375 1.53125 -14.703125 C 1.53125 -15.296875 1.695312 -15.703125 2.03125 -15.921875 C 2.375 -16.140625 2.785156 -16.25 3.265625 -16.25 Z M 3.265625 -16.25 "/></g></g><g style="fill:#d84040;fill-opacity:1;"><g transform="translate(343.721339, 37.010491)"><path style="stroke:none" d="M 6.40625 0.203125 C 5.25 0.203125 4.265625 -0.00390625 3.453125 -0.421875 C 2.640625 -0.847656 2.019531 -1.5 1.59375 -2.375 C 1.164062 -3.257812 0.953125 -4.394531 0.953125 -5.78125 C 0.953125 -7.207031 1.191406 -8.367188 1.671875 -9.265625 C 2.160156 -10.171875 2.835938 -10.832031 3.703125 -11.25 C 4.566406 -11.675781 5.5625 -11.890625 6.6875 -11.890625 C 7.5 -11.890625 8.195312 -11.8125 8.78125 -11.65625 C 9.375 -11.5 9.890625 -11.316406 10.328125 -11.109375 L 9.390625 -8.640625 C 8.890625 -8.835938 8.421875 -9 7.984375 -9.125 C 7.554688 -9.257812 7.125 -9.328125 6.6875 -9.328125 C 6.132812 -9.328125 5.671875 -9.195312 5.296875 -8.9375 C 4.929688 -8.675781 4.65625 -8.285156 4.46875 -7.765625 C 4.289062 -7.242188 4.203125 -6.585938 4.203125 -5.796875 C 4.203125 -5.023438 4.300781 -4.382812 4.5 -3.875 C 4.695312 -3.363281 4.976562 -2.984375 5.34375 -2.734375 C 5.71875 -2.492188 6.164062 -2.375 6.6875 -2.375 C 7.351562 -2.375 7.941406 -2.460938 8.453125 -2.640625 C 8.972656 -2.816406 9.476562 -3.066406 9.96875 -3.390625 L 9.96875 -0.65625 C 9.476562 -0.351562 8.96875 -0.132812 8.4375 0 C 7.90625 0.132812 7.226562 0.203125 6.40625 0.203125 Z M 6.40625 0.203125 "/></g></g><g style="fill:#d84040;fill-opacity:1;"><g transform="translate(354.102192, 37.010491)"><path style="stroke:none" d="M 6.453125 -11.921875 C 8.023438 -11.921875 9.226562 -11.578125 10.0625 -10.890625 C 10.894531 -10.210938 11.3125 -9.175781 11.3125 -7.78125 L 11.3125 0 L 9.09375 0 L 8.46875 -1.59375 L 8.390625 -1.59375 C 8.054688 -1.164062 7.710938 -0.820312 7.359375 -0.5625 C 7.015625 -0.300781 6.613281 -0.109375 6.15625 0.015625 C 5.707031 0.140625 5.160156 0.203125 4.515625 0.203125 C 3.828125 0.203125 3.207031 0.0703125 2.65625 -0.1875 C 2.113281 -0.445312 1.679688 -0.847656 1.359375 -1.390625 C 1.046875 -1.941406 0.890625 -2.640625 0.890625 -3.484375 C 0.890625 -4.722656 1.328125 -5.632812 2.203125 -6.21875 C 3.078125 -6.8125 4.382812 -7.140625 6.125 -7.203125 L 8.140625 -7.265625 L 8.140625 -7.78125 C 8.140625 -8.394531 7.976562 -8.84375 7.65625 -9.125 C 7.34375 -9.414062 6.898438 -9.5625 6.328125 -9.5625 C 5.765625 -9.5625 5.210938 -9.476562 4.671875 -9.3125 C 4.128906 -9.15625 3.585938 -8.953125 3.046875 -8.703125 L 1.984375 -10.859375 C 2.597656 -11.191406 3.289062 -11.453125 4.0625 -11.640625 C 4.832031 -11.828125 5.628906 -11.921875 6.453125 -11.921875 Z M 8.140625 -5.40625 L 6.921875 -5.375 C 5.890625 -5.34375 5.171875 -5.15625 4.765625 -4.8125 C 4.367188 -4.46875 4.171875 -4.019531 4.171875 -3.46875 C 4.171875 -2.976562 4.3125 -2.628906 4.59375 -2.421875 C 4.882812 -2.222656 5.257812 -2.125 5.71875 -2.125 C 6.394531 -2.125 6.96875 -2.320312 7.4375 -2.71875 C 7.90625 -3.125 8.140625 -3.703125 8.140625 -4.453125 Z M 10.625 -16.484375 C 10.582031 -15.796875 10.378906 -15.1875 10.015625 -14.65625 C 9.660156 -14.125 9.179688 -13.707031 8.578125 -13.40625 C 7.972656 -13.113281 7.273438 -12.96875 6.484375 -12.96875 C 5.253906 -12.96875 4.28125 -13.285156 3.5625 -13.921875 C 2.851562 -14.566406 2.472656 -15.421875 2.421875 -16.484375 L 4.1875 -16.484375 C 4.226562 -16.085938 4.351562 -15.796875 4.5625 -15.609375 C 4.78125 -15.429688 5.054688 -15.316406 5.390625 -15.265625 C 5.722656 -15.210938 6.09375 -15.1875 6.5 -15.1875 C 6.832031 -15.1875 7.171875 -15.21875 7.515625 -15.28125 C 7.859375 -15.34375 8.148438 -15.46875 8.390625 -15.65625 C 8.628906 -15.84375 8.769531 -16.117188 8.8125 -16.484375 Z M 10.625 -16.484375 "/></g></g><g style="fill:#000000;fill-opacity:1;"><g transform="translate(112.49515, 58.543703)"><path style="stroke:none" d="M 6.84375 0.265625 C 5.632812 0.265625 4.460938 0.101562 3.328125 -0.21875 C 2.203125 -0.550781 1.296875 -0.984375 0.609375 -1.515625 L 1.8125 -4.171875 C 2.46875 -3.691406 3.25 -3.304688 4.15625 -3.015625 C 5.0625 -2.722656 5.960938 -2.578125 6.859375 -2.578125 C 7.867188 -2.578125 8.613281 -2.722656 9.09375 -3.015625 C 9.570312 -3.316406 9.8125 -3.71875 9.8125 -4.21875 C 9.8125 -4.582031 9.671875 -4.882812 9.390625 -5.125 C 9.109375 -5.363281 8.742188 -5.554688 8.296875 -5.703125 C 7.847656 -5.847656 7.25 -6.007812 6.5 -6.1875 C 5.332031 -6.457031 4.375 -6.734375 3.625 -7.015625 C 2.882812 -7.296875 2.25 -7.738281 1.71875 -8.34375 C 1.1875 -8.957031 0.921875 -9.773438 0.921875 -10.796875 C 0.921875 -11.679688 1.160156 -12.484375 1.640625 -13.203125 C 2.117188 -13.929688 2.84375 -14.503906 3.8125 -14.921875 C 4.78125 -15.347656 5.960938 -15.5625 7.359375 -15.5625 C 8.335938 -15.5625 9.289062 -15.441406 10.21875 -15.203125 C 11.15625 -14.972656 11.972656 -14.640625 12.671875 -14.203125 L 11.578125 -11.515625 C 10.171875 -12.316406 8.757812 -12.71875 7.34375 -12.71875 C 6.351562 -12.71875 5.617188 -12.554688 5.140625 -12.234375 C 4.671875 -11.921875 4.4375 -11.5 4.4375 -10.96875 C 4.4375 -10.445312 4.707031 -10.054688 5.25 -9.796875 C 5.800781 -9.546875 6.640625 -9.296875 7.765625 -9.046875 C 8.929688 -8.773438 9.882812 -8.5 10.625 -8.21875 C 11.363281 -7.9375 12 -7.5 12.53125 -6.90625 C 13.0625 -6.3125 13.328125 -5.503906 13.328125 -4.484375 C 13.328125 -3.609375 13.082031 -2.804688 12.59375 -2.078125 C 12.113281 -1.359375 11.382812 -0.785156 10.40625 -0.359375 C 9.425781 0.0546875 8.238281 0.265625 6.84375 0.265625 Z M 7.09375 1.59375 C 7.5625 1.59375 7.929688 1.710938 8.203125 1.953125 C 8.472656 2.191406 8.609375 2.507812 8.609375 2.90625 C 8.609375 3.351562 8.476562 3.828125 8.21875 4.328125 L 7.453125 5.8125 L 5.859375 5.8125 L 6.40625 4.0625 C 6.132812 3.976562 5.929688 3.835938 5.796875 3.640625 C 5.660156 3.441406 5.59375 3.195312 5.59375 2.90625 C 5.59375 2.507812 5.726562 2.191406 6 1.953125 C 6.269531 1.710938 6.632812 1.59375 7.09375 1.59375 Z M 7.09375 1.59375 "/></g></g><g style="fill:#000000;fill-opacity:1;"><g transform="translate(125.590233, 58.543703)"><path style="stroke:none" d="M 4.984375 -12.421875 L 0.09375 -12.421875 L 0.09375 -15.296875 L 13.421875 -15.296875 L 13.421875 -12.421875 L 8.53125 -12.421875 L 8.53125 0 L 4.984375 0 Z M 4.984375 -12.421875 "/></g></g><g style="fill:#000000;fill-opacity:1;"><g transform="translate(138.466683, 58.543703)"><path style="stroke:none" d="M 13.65625 -2.84375 L 13.65625 0 L 1.8125 0 L 1.8125 -15.296875 L 13.375 -15.296875 L 13.375 -12.453125 L 5.328125 -12.453125 L 5.328125 -9.140625 L 12.4375 -9.140625 L 12.4375 -6.390625 L 5.328125 -6.390625 L 5.328125 -2.84375 Z M 13.65625 -2.84375 "/></g></g><g style="fill:#000000;fill-opacity:1;"><g transform="translate(152.501816, 58.543703)"><path style="stroke:none" d="M 5.359375 -12.453125 L 5.359375 -8.421875 L 12.4375 -8.421875 L 12.4375 -5.578125 L 5.359375 -5.578125 L 5.359375 0 L 1.8125 0 L 1.8125 -15.296875 L 13.375 -15.296875 L 13.375 -12.453125 Z M 5.359375 -12.453125 "/></g></g><g style="fill:#000000;fill-opacity:1;"><g transform="translate(165.203387, 58.543703)"><path style="stroke:none" d="M 11.890625 -3.28125 L 4.78125 -3.28125 L 3.4375 0 L -0.203125 0 L 6.625 -15.296875 L 10.125 -15.296875 L 16.96875 0 L 13.25 0 Z M 10.78125 -5.96875 L 8.34375 -11.828125 L 5.921875 -5.96875 Z M 10.78125 -5.96875 "/></g></g><g style="fill:#000000;fill-opacity:1;"><g transform="translate(181.31535, 58.543703)"><path style="stroke:none" d="M 15.84375 -15.296875 L 15.84375 0 L 12.9375 0 L 5.3125 -9.296875 L 5.3125 0 L 1.8125 0 L 1.8125 -15.296875 L 4.75 -15.296875 L 12.34375 -6.015625 L 12.34375 -15.296875 Z M 15.84375 -15.296875 "/></g></g><g style="fill:#000000;fill-opacity:1;"><g transform="translate(198.345515, 58.543703)"><path style="stroke:none" d=""/></g></g><g style="fill:#000000;fill-opacity:1;"><g transform="translate(203.898368, 58.543703)"><path style="stroke:none" d="M 9.140625 0.265625 C 7.578125 0.265625 6.164062 -0.0703125 4.90625 -0.75 C 3.644531 -1.425781 2.65625 -2.363281 1.9375 -3.5625 C 1.21875 -4.769531 0.859375 -6.132812 0.859375 -7.65625 C 0.859375 -9.164062 1.21875 -10.519531 1.9375 -11.71875 C 2.65625 -12.925781 3.644531 -13.867188 4.90625 -14.546875 C 6.164062 -15.222656 7.582031 -15.5625 9.15625 -15.5625 C 10.476562 -15.5625 11.675781 -15.328125 12.75 -14.859375 C 13.820312 -14.398438 14.722656 -13.734375 15.453125 -12.859375 L 13.1875 -10.75 C 12.144531 -11.945312 10.859375 -12.546875 9.328125 -12.546875 C 8.378906 -12.546875 7.535156 -12.335938 6.796875 -11.921875 C 6.054688 -11.503906 5.476562 -10.925781 5.0625 -10.1875 C 4.644531 -9.445312 4.4375 -8.601562 4.4375 -7.65625 C 4.4375 -6.707031 4.644531 -5.859375 5.0625 -5.109375 C 5.476562 -4.367188 6.054688 -3.789062 6.796875 -3.375 C 7.535156 -2.957031 8.378906 -2.75 9.328125 -2.75 C 10.859375 -2.75 12.144531 -3.351562 13.1875 -4.5625 L 15.453125 -2.46875 C 14.722656 -1.582031 13.816406 -0.90625 12.734375 -0.4375 C 11.660156 0.03125 10.460938 0.265625 9.140625 0.265625 Z M 9.140625 0.265625 "/></g></g><g style="fill:#000000;fill-opacity:1;"><g transform="translate(218.961005, 58.543703)"><path style="stroke:none" d="M 9.21875 0.265625 C 7.632812 0.265625 6.203125 -0.078125 4.921875 -0.765625 C 3.648438 -1.453125 2.65625 -2.394531 1.9375 -3.59375 C 1.21875 -4.800781 0.859375 -6.15625 0.859375 -7.65625 C 0.859375 -9.15625 1.21875 -10.503906 1.9375 -11.703125 C 2.65625 -12.910156 3.648438 -13.851562 4.921875 -14.53125 C 6.203125 -15.21875 7.632812 -15.5625 9.21875 -15.5625 C 10.8125 -15.5625 12.238281 -15.21875 13.5 -14.53125 C 14.769531 -13.851562 15.769531 -12.910156 16.5 -11.703125 C 17.226562 -10.503906 17.59375 -9.15625 17.59375 -7.65625 C 17.59375 -6.15625 17.226562 -4.800781 16.5 -3.59375 C 15.769531 -2.394531 14.769531 -1.453125 13.5 -0.765625 C 12.238281 -0.078125 10.8125 0.265625 9.21875 0.265625 Z M 9.21875 -2.75 C 10.125 -2.75 10.941406 -2.957031 11.671875 -3.375 C 12.398438 -3.789062 12.972656 -4.367188 13.390625 -5.109375 C 13.804688 -5.859375 14.015625 -6.707031 14.015625 -7.65625 C 14.015625 -8.601562 13.804688 -9.445312 13.390625 -10.1875 C 12.972656 -10.925781 12.398438 -11.503906 11.671875 -11.921875 C 10.941406 -12.335938 10.125 -12.546875 9.21875 -12.546875 C 8.320312 -12.546875 7.507812 -12.335938 6.78125 -11.921875 C 6.050781 -11.503906 5.476562 -10.925781 5.0625 -10.1875 C 4.644531 -9.445312 4.4375 -8.601562 4.4375 -7.65625 C 4.4375 -6.707031 4.644531 -5.859375 5.0625 -5.109375 C 5.476562 -4.367188 6.050781 -3.789062 6.78125 -3.375 C 7.507812 -2.957031 8.320312 -2.75 9.21875 -2.75 Z M 9.21875 -2.75 "/></g></g><g style="fill:#000000;fill-opacity:1;"><g transform="translate(236.778164, 58.543703)"><path style="stroke:none" d="M 11.5625 0 L 8.609375 -4.265625 L 5.359375 -4.265625 L 5.359375 0 L 1.8125 0 L 1.8125 -15.296875 L 8.4375 -15.296875 C 9.789062 -15.296875 10.96875 -15.070312 11.96875 -14.625 C 12.96875 -14.175781 13.734375 -13.535156 14.265625 -12.703125 C 14.804688 -11.867188 15.078125 -10.882812 15.078125 -9.75 C 15.078125 -8.613281 14.800781 -7.632812 14.25 -6.8125 C 13.707031 -5.988281 12.9375 -5.359375 11.9375 -4.921875 L 15.359375 0 Z M 11.5 -9.75 C 11.5 -10.601562 11.222656 -11.257812 10.671875 -11.71875 C 10.117188 -12.1875 9.304688 -12.421875 8.234375 -12.421875 L 5.359375 -12.421875 L 5.359375 -7.078125 L 8.234375 -7.078125 C 9.304688 -7.078125 10.117188 -7.3125 10.671875 -7.78125 C 11.222656 -8.25 11.5 -8.90625 11.5 -9.75 Z M 11.5 -9.75 "/></g></g><g style="fill:#000000;fill-opacity:1;"><g transform="translate(252.212436, 58.543703)"><path style="stroke:none" d="M 15.84375 -15.296875 L 15.84375 0 L 12.9375 0 L 5.3125 -9.296875 L 5.3125 0 L 1.8125 0 L 1.8125 -15.296875 L 4.75 -15.296875 L 12.34375 -6.015625 L 12.34375 -15.296875 Z M 15.84375 -15.296875 "/></g></g><g style="fill:#000000;fill-opacity:1;"><g transform="translate(269.2426, 58.543703)"><path style="stroke:none" d="M 13.65625 -2.84375 L 13.65625 0 L 1.8125 0 L 1.8125 -15.296875 L 13.375 -15.296875 L 13.375 -12.453125 L 5.328125 -12.453125 L 5.328125 -9.140625 L 12.4375 -9.140625 L 12.4375 -6.390625 L 5.328125 -6.390625 L 5.328125 -2.84375 Z M 13.65625 -2.84375 "/></g></g><g style="fill:#000000;fill-opacity:1;"><g transform="translate(283.277734, 58.543703)"><path style="stroke:none" d="M 1.8125 -15.296875 L 5.359375 -15.296875 L 5.359375 -2.890625 L 13.03125 -2.890625 L 13.03125 0 L 1.8125 0 Z M 1.8125 -15.296875 "/></g></g><g style="fill:#000000;fill-opacity:1;"><g transform="translate(295.848125, 58.543703)"><path style="stroke:none" d=""/></g></g><g style="fill:#d84040;fill-opacity:1;"><g transform="translate(301.419575, 58.543703)"><path style="stroke:none" d="M 8.4375 -15.296875 C 9.789062 -15.296875 10.96875 -15.070312 11.96875 -14.625 C 12.96875 -14.175781 13.734375 -13.535156 14.265625 -12.703125 C 14.804688 -11.867188 15.078125 -10.882812 15.078125 -9.75 C 15.078125 -8.625 14.804688 -7.640625 14.265625 -6.796875 C 13.734375 -5.960938 12.96875 -5.320312 11.96875 -4.875 C 10.96875 -4.4375 9.789062 -4.21875 8.4375 -4.21875 L 5.359375 -4.21875 L 5.359375 0 L 1.8125 0 L 1.8125 -15.296875 Z M 8.234375 -7.109375 C 9.304688 -7.109375 10.117188 -7.335938 10.671875 -7.796875 C 11.222656 -8.253906 11.5 -8.90625 11.5 -9.75 C 11.5 -10.601562 11.222656 -11.257812 10.671875 -11.71875 C 10.117188 -12.1875 9.304688 -12.421875 8.234375 -12.421875 L 5.359375 -12.421875 L 5.359375 -7.109375 Z M 8.234375 -7.109375 "/></g></g><g style="fill:#d84040;fill-opacity:1;"><g transform="translate(316.569638, 58.543703)"><path style="stroke:none" d="M 5.359375 -12.453125 L 5.359375 -8.421875 L 12.4375 -8.421875 L 12.4375 -5.578125 L 5.359375 -5.578125 L 5.359375 0 L 1.8125 0 L 1.8125 -15.296875 L 13.375 -15.296875 L 13.375 -12.453125 Z M 5.359375 -12.453125 "/></g></g><g style="fill:#d84040;fill-opacity:1;"><g transform="translate(329.271209, 58.543703)"><path style="stroke:none" d="M 11.890625 -3.28125 L 4.78125 -3.28125 L 3.4375 0 L -0.203125 0 L 6.625 -15.296875 L 10.125 -15.296875 L 16.96875 0 L 13.25 0 Z M 10.78125 -5.96875 L 8.34375 -11.828125 L 5.921875 -5.96875 Z M 10.78125 -5.96875 "/></g></g></g></svg>