<svg xmlns="http://www.w3.org/2000/svg" xmlns:xlink="http://www.w3.org/1999/xlink" width="500" zoomAndPan="magnify" viewBox="0 0 375 211.499994" height="282" preserveAspectRatio="xMidYMid meet" version="1.0"><defs><g/><clipPath id="51f552b055"><path d="M 0.441406 0 L 201.542969 0 L 201.542969 209 L 0.441406 209 Z M 0.441406 0 " clip-rule="nonzero"/></clipPath></defs><g clip-path="url(#51f552b055)"><path fill="#434345" d="M 193.730469 0.644531 L 184.707031 6.820312 C 137.507812 39.09375 89.175781 105.90625 65.0625 160.230469 C 61.335938 155.019531 60.210938 153.289062 56.601562 147.496094 C 41.859375 127.59375 23.171875 110.511719 14.300781 104.203125 L 0.441406 109.992188 L 0.882812 110.816406 C 10.449219 121.285156 27.238281 144.515625 52.542969 195.710938 C 54.09375 197.921875 55.75 200.089844 57.632812 202.113281 C 62.585938 207.414062 67.660156 208.53125 71.050781 208.53125 C 71.054688 208.53125 71.054688 208.53125 71.054688 208.53125 C 80.714844 208.53125 86.410156 200.90625 90.332031 191.984375 C 115.675781 97.960938 175.5625 33.230469 201.460938 11.0625 Z M 193.730469 0.644531 " fill-opacity="1" fill-rule="nonzero"/></g><g fill="#ffffff" fill-opacity="1"><g transform="translate(155.536277, 184.214726)"><g><path d="M 11.375 0 L 11.375 -105.265625 L 39.96875 -105.265625 L 39.96875 0 Z M 11.375 0 "/></g></g></g><g fill="#ffffff" fill-opacity="1"><g transform="translate(202.597135, 184.214726)"><g><path d="M 57.828125 0 L 29.375 0 L 29.375 -82.015625 L 3.671875 -82.015625 L 3.671875 -105.265625 L 83.453125 -105.265625 L 83.453125 -82.015625 L 57.828125 -82.015625 Z M 57.828125 0 "/></g></g></g><g fill="#ffffff" fill-opacity="1"><g transform="translate(285.442954, 184.214726)"><g><path d="M 47.8125 -105.265625 C 61.15625 -105.265625 71.148438 -102.359375 77.796875 -96.546875 C 84.453125 -90.742188 87.78125 -82.492188 87.78125 -71.796875 C 87.78125 -66.992188 87.09375 -62.382812 85.71875 -57.96875 C 84.351562 -53.550781 82.117188 -49.613281 79.015625 -46.15625 C 75.921875 -42.695312 71.816406 -39.957031 66.703125 -37.9375 C 61.597656 -35.925781 55.300781 -34.921875 47.8125 -34.921875 L 39.8125 -34.921875 L 39.8125 0 L 11.375 0 L 11.375 -105.265625 Z M 47.171875 -82.296875 L 39.8125 -82.296875 L 39.8125 -58.109375 L 45.4375 -58.109375 C 47.882812 -58.109375 50.160156 -58.523438 52.265625 -59.359375 C 54.378906 -60.203125 56.070312 -61.570312 57.34375 -63.46875 C 58.625 -65.363281 59.265625 -67.894531 59.265625 -71.0625 C 59.265625 -74.375 58.28125 -77.070312 56.3125 -79.15625 C 54.34375 -81.25 51.296875 -82.296875 47.171875 -82.296875 Z M 47.171875 -82.296875 "/></g></g></g></svg>