<svg xmlns="http://www.w3.org/2000/svg" version="1.1" xmlns:xlink="http://www.w3.org/1999/xlink" width="512" height="512" x="0" y="0" viewBox="0 0 100 100" style="enable-background:new 0 0 512 512" xml:space="preserve"><g><linearGradient id="a"><stop stop-opacity="1" stop-color="#d84040" offset="0"></stop><stop stop-opacity="1" stop-color="#f66b6b" offset="1"></stop></linearGradient><linearGradient xlink:href="#a" id="b" x1="14.498" x2="101.548" y1="-18.751" y2="80.17" gradientUnits="userSpaceOnUse"></linearGradient><linearGradient xlink:href="#a" id="c" x1=".409" x2="87.459" y1="-6.353" y2="92.568" gradientUnits="userSpaceOnUse"></linearGradient><linearGradient xlink:href="#a" id="d" x1="-13.679" x2="73.371" y1="6.045" y2="104.966" gradientUnits="userSpaceOnUse"></linearGradient><g fill-rule="evenodd" clip-rule="evenodd"><path fill="url(#b)" d="M93.218 12.53H6.782A4.295 4.295 0 0 0 2.5 16.81v9.562a4.295 4.295 0 0 0 4.282 4.282h86.436a4.295 4.295 0 0 0 4.282-4.282v-9.562a4.295 4.295 0 0 0-4.282-4.282z" opacity="1" data-original="url(#b)"></path><path fill="url(#c)" d="M93.218 40.937H6.782A4.295 4.295 0 0 0 2.5 45.22v9.56a4.294 4.294 0 0 0 4.282 4.283h86.436a4.295 4.295 0 0 0 4.282-4.282V45.22a4.295 4.295 0 0 0-4.282-4.283z" opacity="1" data-original="url(#c)"></path><path fill="url(#d)" d="M93.218 69.345H6.782A4.295 4.295 0 0 0 2.5 73.627v9.562a4.294 4.294 0 0 0 4.282 4.282h86.436a4.295 4.295 0 0 0 4.282-4.282v-9.562a4.295 4.295 0 0 0-4.282-4.282z" opacity="1" data-original="url(#d)"></path></g></g></svg>