<svg xmlns="http://www.w3.org/2000/svg" version="1.1" xmlns:xlink="http://www.w3.org/1999/xlink" width="512" height="512" x="0" y="0" viewBox="0 0 512 512" style="enable-background:new 0 0 512 512" xml:space="preserve"><g><path d="M256.01 512c141.158 0 255.985-114.846 255.985-256.005S397.168 0 256.01 0C114.851 0 .005 114.837.005 255.995S114.851 512 256.01 512zm-8.25-470.352c11.807-.459 20.33 8.269 20.702 19.314l6.158 176.971 65.839-52.595c8.66-6.92 21.249-5.483 28.13 3.147 6.901 8.64 5.493 21.23-3.147 28.13l-96.96 77.45a19.975 19.975 0 0 1-12.491 4.379c-2.835 0-5.689-.606-8.367-1.828a19.989 19.989 0 0 1-11.631-17.496l-7.526-216.771c-.392-11.044 8.249-20.32 19.293-20.701z" fill="#36454f" opacity="1" data-original="#000000"></path></g></svg>