<svg xmlns="http://www.w3.org/2000/svg" version="1.1" xmlns:xlink="http://www.w3.org/1999/xlink" width="512" height="512" x="0" y="0" viewBox="0 0 512 512" style="enable-background:new 0 0 512 512" xml:space="preserve" class=""><g><path d="M506.799 204.426a254.836 254.836 0 0 0-14.924-48.078 256.094 256.094 0 0 0-23.606-43.492 257.661 257.661 0 0 0-31.25-37.875 257.788 257.788 0 0 0-37.875-31.25 256.024 256.024 0 0 0-43.492-23.606 254.826 254.826 0 0 0-48.077-14.924C290.71 1.75 273.358 0 256 0s-34.71 1.75-51.575 5.201a254.836 254.836 0 0 0-48.078 14.924 256.094 256.094 0 0 0-43.492 23.606 257.769 257.769 0 0 0-37.874 31.25 257.788 257.788 0 0 0-31.25 37.875 256.024 256.024 0 0 0-23.606 43.492 254.813 254.813 0 0 0-14.924 48.078C1.75 221.29 0 238.642 0 256s1.75 34.71 5.201 51.575a254.826 254.826 0 0 0 14.924 48.077 256.094 256.094 0 0 0 23.606 43.492 257.724 257.724 0 0 0 31.25 37.875 257.788 257.788 0 0 0 37.875 31.25 256.024 256.024 0 0 0 43.492 23.606 254.813 254.813 0 0 0 48.078 14.924C221.29 510.25 238.642 512 256 512s34.71-1.75 51.575-5.201a254.804 254.804 0 0 0 48.077-14.924 256.094 256.094 0 0 0 43.492-23.606 257.661 257.661 0 0 0 37.875-31.25 257.788 257.788 0 0 0 31.25-37.875 256.024 256.024 0 0 0 23.606-43.492 254.826 254.826 0 0 0 14.924-48.077C510.25 290.71 512 273.358 512 256s-1.75-34.71-5.201-51.574zM256 477.379c-122.069 0-221.379-99.31-221.379-221.379S133.931 34.621 256 34.621 477.379 133.931 477.379 256 378.069 477.379 256 477.379z" fill="#ffffff" opacity="1" data-original="#000000" class=""></path><path d="m329.033 194.891-56.947 45.483-5.31-153.038c-.331-9.555-8.344-17.03-17.9-16.7-9.555.332-17.031 8.346-16.7 17.9l6.504 187.455a17.313 17.313 0 0 0 17.298 16.711c3.857 0 7.68-1.289 10.805-3.785l83.856-66.975c7.47-5.966 8.689-16.859 2.723-24.329-5.966-7.469-16.859-8.688-24.329-2.722z" fill="#ffffff" opacity="1" data-original="#000000" class=""></path></g></svg>