<svg xmlns="http://www.w3.org/2000/svg" version="1.1" xmlns:xlink="http://www.w3.org/1999/xlink" width="512" height="512" x="0" y="0" viewBox="0 0 512 512" style="enable-background:new 0 0 512 512" xml:space="preserve" class=""><g><path d="M311.59 54.79v402.42h-15c-78.13 0-151.78-20.25-207.39-57.03-27.62-18.26-49.39-39.67-64.71-63.62C8.24 311.15 0 284.05 0 256s8.24-55.15 24.49-80.56c15.32-23.95 37.09-45.36 64.71-63.62 55.61-36.78 129.26-57.03 207.39-57.03h15z" style="" fill="#333333" data-original="#c8c6cd" class="" opacity="1"></path><path d="m512 158.86-146.941-45.872-8.94 28.637L512 190.288zM512 234.838l-146.941-45.872-8.94 28.636L512 266.265zM512 310.816l-146.941-45.872-8.94 28.636L512 342.243zM512 386.793l-146.941-45.872-8.94 28.637L512 418.221z" style="" fill="#d84040" data-original="#ffc473" class="" opacity="1"></path><path d="M311.59 256v201.21h-15c-78.13 0-151.78-20.25-207.39-57.03-27.62-18.26-49.39-39.67-64.71-63.62C8.24 311.15 0 284.05 0 256h311.59z" style="" fill="#333333" data-original="#aeadb3" class="" opacity="1"></path><path d="M311.59 54.79v402.42h-15c-25.85 0-51.21-2.23-75.59-6.53V61.32c24.38-4.3 49.74-6.53 75.59-6.53h15z" style="" fill="#d84040" data-original="#ffaa20" class="" opacity="1"></path><path d="M311.59 256v201.21h-15c-25.85 0-51.21-2.23-75.59-6.53V256h90.59z" style="" fill="#d84040" data-original="#ff8900" class="" opacity="1"></path></g></svg>