<svg xmlns="http://www.w3.org/2000/svg" version="1.1" xmlns:xlink="http://www.w3.org/1999/xlink" width="512" height="512" x="0" y="0" viewBox="0 0 512 512" style="enable-background:new 0 0 512 512" xml:space="preserve" class=""><g><path d="M503.5 131.749H399.641a38.888 38.888 0 0 0-36.939 26.625l-27.365 82.094H503.5M503.5 380.249h-26.256a166.463 166.463 0 0 1-92.336-27.957l-4.658-3.105v-46.594H503.5M318.125 302.593h62.125v46.594h-62.125zM296.531 302.593c-13.807 0-25 11.193-25 25v11.594c0 5.523 4.477 10 10 10h36.594v-46.594h-21.594zM323.656 411.312h-42.125c-5.523 0-10-4.477-10-10V390.25c0-5.523 4.477-10 10-10h42.125c5.523 0 10 4.477 10 10v11.062c0 5.523-4.477 10-10 10zM411.31 365.554v-61.96M442.38 375.554v-71.96M473.44 379.204v-75.61M364.719 443.374v44.007c0 9.454-7.664 17.118-17.118 17.118h-58.952c-9.454 0-17.118-7.664-17.118-17.118v-44.007M333.656 443.374v60.125M302.594 443.374v60.125M85.156 178.343H10a2.5 2.5 0 0 1-2.5-2.5v-26.062a2.5 2.5 0 0 1 2.5-2.5h75.156v31.062zM85.156 178.343l27.444 13.722c1.662.831 3.618-.378 3.618-2.236v-54.035c0-1.858-1.956-3.067-3.618-2.236L85.156 147.28M158.323 164.666l50.501-18.938M333.233 148.551l-30.639 91.917M240.469 353.343v26.906" style="stroke-width:15;stroke-linecap:round;stroke-linejoin:round;stroke-miterlimit:10;" fill="none" stroke="#ffffff" stroke-width="15" stroke-linecap="round" stroke-linejoin="round" stroke-miterlimit="10" data-original="#000000" opacity="1"></path><path d="M380.275 239.471c.48-15.4 12.17-27.97 27.19-29.83a5.027 5.027 0 0 0 4.27-3.85c1.69-7.07 8.21-12.27 15.88-11.9M117.215 178.841l72.35 36.17c2.37 1.19 3.43 4.03 2.35 6.46-16.64 37.28-2.7 82 33.42 102.86 4.58 2.64 9.32 4.79 14.14 6.45M195.973 117.369l42.132-15.798c.77-.29 1.45-.76 1.99-1.38a103.589 103.589 0 0 1 49.66-31.16c1.77-.49 3.1-1.94 3.49-3.73a73.134 73.134 0 0 1 8.11-20.99c20.31-35.17 65.45-47.26 100.62-26.96a73.198 73.198 0 0 1 23.67 21.79c.59.86 1.64 1.26 2.66 1.02a62.194 62.194 0 0 1 16.47-1.55c32.8 1.23 59.2 28.28 59.72 61.08M117.215 146.901l45.516-17.067" style="stroke-width:15;stroke-linecap:round;stroke-linejoin:round;stroke-miterlimit:10;" fill="none" stroke="#ffffff" stroke-width="15" stroke-linecap="round" stroke-linejoin="round" stroke-miterlimit="10" data-original="#000000" opacity="1"></path><path d="M504.5 161.389v-60.703H399.641c-2.574 0-5.123.141-7.639.416a4.945 4.945 0 0 1-5.168-3.219c-2.725-7.428-9.859-12.729-18.232-12.729-8.3 0-15.383 5.208-18.16 12.535-.808 2.133-2.96 3.399-5.23 3.179a39.48 39.48 0 0 0-5.97-.123c-19.577 1.071-35.476 16.937-36.584 36.513a39.547 39.547 0 0 0 .024 4.896c.181 2.695-1.777 5.079-4.467 5.33-23.767 2.215-42.215 22.224-42.215 46.39l.002.272M433.551 442.374H499.5a5 5 0 0 0 5-5V196.389M301.26 241.468l-24.792 18.594a89.999 89.999 0 0 0-36 72v21.281c-5.22-3.02-11.401-4.564-17.972-4.063-15.434 1.179-27.797 13.893-28.581 29.353-.733 14.472 8.443 26.914 21.342 31.141 2.696.883 4.077 3.831 3.099 6.494a19.518 19.518 0 0 0-1.038 9.108c1.07 8.864 8.292 15.958 17.173 16.888 5.954.624 11.436-1.447 15.375-5.142a5.086 5.086 0 0 1 6.32-.536 34.832 34.832 0 0 0 19.284 5.788h123.082" style="stroke-width:15;stroke-linecap:round;stroke-linejoin:round;stroke-miterlimit:10;" fill="none" stroke="#ffffff" stroke-width="15" stroke-linecap="round" stroke-linejoin="round" stroke-miterlimit="10" data-original="#000000" opacity="1"></path><path d="m309.832 215.59-3.82-11.46a15 15 0 0 0-14.23-10.257h-28.017c-12.867 0-23.297 10.43-23.297 23.297s10.43 23.297 23.297 23.297h38.828" style="stroke-width:15;stroke-linecap:round;stroke-linejoin:round;stroke-miterlimit:10;" fill="none" stroke="#ffffff" stroke-width="15" stroke-linecap="round" stroke-linejoin="round" stroke-miterlimit="10" data-original="#000000" opacity="1"></path></g></svg>