<svg xmlns="http://www.w3.org/2000/svg" version="1.1" xmlns:xlink="http://www.w3.org/1999/xlink" width="512" height="512" x="0" y="0" viewBox="0 0 512 512" style="enable-background:new 0 0 512 512" xml:space="preserve" class=""><g><path fill="#b9b9be" d="M99.366 406.833a15.635 15.635 0 0 1-11.097-4.6c-6.122-6.129-6.117-16.059.011-22.182l233.493-233.255c6.129-6.122 16.059-6.117 22.182.011 6.122 6.129 6.117 16.059-.011 22.182L110.451 402.244a15.637 15.637 0 0 1-11.085 4.589z" opacity="1" data-original="#b9b9be" class=""></path><path fill="#3d3d3d" d="m194.31 367.309-23.635-23.651c-6.13-6.135-16.072-6.138-22.206-.007-6.134 6.13-6.137 16.072-.007 22.206l23.635 23.651c9.323 9.33 9.323 24.51 0 33.841l-66.41 66.453L127.9 512l66.41-66.453c21.556-21.571 21.556-56.668 0-78.238z" opacity="1" data-original="#3d3d3d" class=""></path><path fill="#d84040" d="M79.792 479.59v22.425c0 5.514 4.47 9.985 9.985 9.985h43.698c5.485 0 9.943-4.425 9.984-9.91l.783-88.176a9.985 9.985 0 0 1 2.922-6.983l-53.714 8.447-14.456 59.723c.515 1.429.798 2.943.798 4.489z" opacity="1" data-original="#00abe9" class=""></path><path fill="#9b9b9b" d="M99.366 406.833c4.011 0 8.023-1.53 11.085-4.589l233.493-233.255c6.129-6.122 6.134-16.053.011-22.182-.052-.052-.108-.094-.161-.145L88.369 402.323a15.632 15.632 0 0 0 10.997 4.51z" opacity="1" data-original="#9b9b9b" class=""></path><path fill="#333333" d="m345.925 170.513-26.117-26.091c-4.234-4.229-4.234-11.091 0-15.321l53.587-53.537c4.228-4.223 11.078-4.223 15.305 0l26.117 26.091c4.234 4.229 4.234 11.091 0 15.321l-53.587 53.537c-4.228 4.224-11.078 4.224-15.305 0z" opacity="1" data-original="#e0e0e0" class=""></path><path fill="#333333" d="m414.817 101.655-13.041-13.028-68.844 68.907 12.992 12.979c4.228 4.224 11.078 4.224 15.305 0l53.587-53.537c4.235-4.23 4.235-11.091.001-15.321z" opacity="1" data-original="#d2d2d7" class=""></path><path fill="#d84040" d="m205.842 334.098-51.147-51.181c-3.9-3.902-10.225-3.902-14.125 0l-37.765 37.789 21.702 46.109 43.57 19.189 37.766-37.791c3.895-3.898 3.895-10.216-.001-14.115z" opacity="1" data-original="#00cef5" class=""></path><path fill="#d84040" d="m124.507 366.816 43.57 19.189 37.766-37.791c3.896-3.899 3.896-10.217 0-14.116l-24.627-24.643-56.901 56.953z" opacity="1" data-original="#00abe9" class=""></path><path fill="#c43d3d" d="m102.805 320.707-79.729 79.781c-4.013 4.016-3.875 10.565.304 14.408l52.771 55.574a13.25 13.25 0 0 1 2.843 4.632l89.083-89.097z" opacity="1" data-original="#69e1f4" class=""></path><path fill="#d84040" d="M76.151 470.469a13.25 13.25 0 0 1 2.843 4.632l89.083-89.097-31.678-31.691-87.439 87.519z" opacity="1" data-original="#00cef5" class=""></path><g fill="#69e1f4"><circle cx="395.983" cy="15" r="15" fill="#c43d3d" opacity="1" data-original="#69e1f4" class=""></circle><circle cx="436.413" cy="55.432" r="15" fill="#c43d3d" opacity="1" data-original="#69e1f4" class=""></circle><circle cx="476.846" cy="95.865" r="15" fill="#c43d3d" opacity="1" data-original="#69e1f4" class=""></circle><circle cx="476.846" cy="15" r="15" fill="#c43d3d" opacity="1" data-original="#69e1f4" class=""></circle></g></g></svg>