<svg xmlns="http://www.w3.org/2000/svg" version="1.1" xmlns:xlink="http://www.w3.org/1999/xlink" width="512" height="512" x="0" y="0" viewBox="0 0 64 64" style="enable-background:new 0 0 512 512" xml:space="preserve" class=""><g><g data-name="2-Price tag"><path d="M24 62.926a5.98 5.98 0 0 1-4.243-1.755L2.771 44.185A6.027 6.027 0 0 1 2.7 35.77L29.809 7.827A6.029 6.029 0 0 1 34.119 6H44a1 1 0 0 1 0 2h-9.881a4.019 4.019 0 0 0-2.874 1.218L4.138 37.162a4.018 4.018 0 0 0 .047 5.609l16.986 16.986a4.005 4.005 0 0 0 5.657 0l28-28A3.975 3.975 0 0 0 56 28.929V11a3 3 0 0 0-3-3h-6a1 1 0 0 1 0-2h6a5.006 5.006 0 0 1 5 5v17.929a5.96 5.96 0 0 1-1.757 4.243l-28 28A5.98 5.98 0 0 1 24 62.926z" fill="#ffffff" opacity="1" data-original="#000000"></path><path d="M49 20a5.006 5.006 0 0 1-5-5 1 1 0 0 1 2 0 3 3 0 1 0 1.016-2.25 1 1 0 0 1-1.324-1.5A5 5 0 1 1 49 20z" fill="#ffffff" opacity="1" data-original="#000000"></path><path d="M49.5 14a6.5 6.5 0 1 1 4.953-10.71 1 1 0 1 1-1.523 1.3A4.5 4.5 0 1 0 49.5 12a1 1 0 0 1 0 2z" fill="#ffffff" opacity="1" data-original="#000000"></path></g></g></svg>