<svg xmlns="http://www.w3.org/2000/svg" version="1.1" xmlns:xlink="http://www.w3.org/1999/xlink" width="512" height="512" x="0" y="0" viewBox="0 0 512 512" style="enable-background:new 0 0 512 512" xml:space="preserve" class=""><g><path d="M45.84 92.871a9.968 9.968 0 0 1-6.895-2.758c-4-3.804-4.156-10.136-.347-14.136l.277-.293c3.82-3.989 10.148-4.13 14.14-.313 3.989 3.82 4.13 10.149.31 14.14l-.24.255a9.985 9.985 0 0 1-7.245 3.105zm0 0" fill="#ffffff" opacity="1" data-original="#000000"></path><path d="M311.422 512c-46.434 0-89.66-21.629-117.516-58.328C174.06 465.692 151.473 472 128 472 57.672 472 .457 414.785.457 344.457c0-31.008 10.984-60.312 31.113-83.488C11.148 236.023 0 204.938 0 172.457c0-21.16 4.61-41.496 13.7-60.441 2.386-4.977 8.359-7.082 13.34-4.688 4.98 2.39 7.077 8.363 4.69 13.344C23.945 136.89 20 154.312 20 172.457c0 30.523 11.488 59.61 32.344 81.895 3.691 3.941 3.582 10.101-.242 13.918-20.407 20.328-31.649 47.386-31.649 76.187C20.457 403.757 68.7 452 128 452c22.645 0 44.305-6.957 62.645-20.121a10.001 10.001 0 0 1 14.184 2.621c23.71 36.004 63.558 57.5 106.597 57.5 60.91 0 113.554-43.324 125.18-103.02a9.988 9.988 0 0 1 7.09-7.707c28.44-8.05 48.304-34.324 48.304-63.902 0-22.613-11.363-43.469-30.395-55.789a9.984 9.984 0 0 1-4.457-6.934 9.993 9.993 0 0 1 2.262-7.925c21.016-24.817 32.59-56.41 32.59-88.965C492 81.797 430.203 20 354.242 20c-47.336 0-90.805 23.871-116.273 63.86a9.99 9.99 0 0 1-7.23 4.554 10.006 10.006 0 0 1-8.106-2.691c-22.399-21.375-51.785-33.145-82.754-33.145-19.883 0-39.57 4.961-56.938 14.356-4.859 2.628-10.925.82-13.554-4.04-2.625-4.859-.82-10.925 4.039-13.55 20.281-10.969 43.258-16.766 66.453-16.766 32.226 0 62.992 10.926 87.805 30.98C257.418 23.556 303.918 0 354.242 0 441.23 0 512 70.77 512 157.758a157.908 157.908 0 0 1-30.73 93.543c19.414 16.328 30.73 40.32 30.73 66.07 0 36.43-23.16 69.008-57.023 81.266C439.32 464.676 379.883 512 311.422 512zm0 0" fill="#ffffff" opacity="1" data-original="#000000"></path><path d="M354.242 74h-.074c-5.516-.043-10.027-4.543-9.996-10.059.031-5.5 4.574-9.941 10.07-9.941h.04c5.515.02 10.046 4.504 10.034 10.02-.007 5.515-4.558 9.98-10.074 9.98zM448 167.758c-5.523 0-10-4.48-10-10 0-31.899-18.559-61.5-47.277-75.422-4.97-2.406-7.047-8.39-4.637-13.36 2.406-4.968 8.39-7.042 13.36-4.636a104.006 104.006 0 0 1 42.265 37.586C452.367 118.586 458 137.895 458 157.758c0 5.52-4.477 10-10 10zM128 418c-40.555 0-73.543-32.992-73.543-73.543 0-5.523 4.477-10 10-10s10 4.477 10 10C74.457 373.98 98.477 398 128 398c5.523 0 10 4.477 10 10s-4.477 10-10 10zM300.328 305.11c-38.598 0-70-31.403-70-70s31.402-70 70-70c38.602 0 70 31.402 70 70s-31.398 70-70 70zm0-120c-27.566 0-50 22.43-50 50s22.434 50 50 50c27.57 0 50-22.43 50-50s-22.43-50-50-50zM158.316 305.078c-17.921 0-35.847-6.824-49.496-20.469-27.293-27.293-27.293-71.703 0-98.996 27.293-27.293 71.703-27.293 98.996 0 3.907 3.907 3.907 10.239 0 14.145-3.906 3.902-10.238 3.902-14.144 0-9.442-9.446-22-14.649-35.356-14.649-13.351 0-25.91 5.203-35.351 14.649-19.496 19.492-19.496 51.215 0 70.707 9.441 9.445 22 14.644 35.351 14.644 13.356 0 25.914-5.199 35.356-14.644 3.906-3.903 10.238-3.903 14.144 0 3.907 3.906 3.907 10.238 0 14.144-13.648 13.645-31.574 20.47-49.5 20.47zM413.684 346.89h-32.145a10 10 0 0 1-5.922-18.058c9.153-6.758 28.063-24.644 28.063-36.777 0-3.844-.992-6.07-6.07-6.07a6.08 6.08 0 0 0-6.07 6.07c0 5.523-4.477 10-10 10-5.52 0-10-4.477-10-10 0-14.375 11.694-26.07 26.07-26.07 15.593 0 26.07 10.476 26.07 26.07 0 12.691-8.035 25.168-16.575 34.836h6.575c5.523 0 10 4.476 10 10s-4.477 10-9.996 10zm0 0" fill="#ffffff" opacity="1" data-original="#000000"></path></g></svg>