<svg xmlns="http://www.w3.org/2000/svg" version="1.1" xmlns:xlink="http://www.w3.org/1999/xlink" width="512" height="512" x="0" y="0" viewBox="0 0 512 512" style="enable-background:new 0 0 512 512" xml:space="preserve" class=""><g><path d="M496.96 256.97C489.07 126.93 385.07 22.92 255.03 15.04c-5.81-.36-11.13 1.57-15.38 5.57-4.24 3.99-6.49 9.19-6.49 15.01v13.13c-57.63 1.5-111.59 24.65-152.51 65.57C38.32 156.67 15 212.96 15 272.83S38.32 389 80.66 431.34 179.29 497 239.17 497s116.17-23.32 158.51-65.66c40.92-40.92 64.07-94.88 65.57-152.51h13.13c5.83 0 11.02-2.24 15.02-6.49 3.99-4.24 5.91-9.56 5.56-15.37zm-77.41 21.86c-3.18 96.76-82.87 174.49-180.38 174.49-99.52 0-180.49-80.97-180.49-180.49 0-97.52 77.74-177.21 174.49-180.38v50.82c-68.74 3.15-123.7 60.05-123.7 129.56 0 71.52 58.19 129.7 129.7 129.7 69.51 0 126.41-54.96 129.56-123.7zM107.43 413.05c33.1 31.12 77.18 50.68 125.73 52.17v19.68c-53.98-1.51-102.97-23.27-139.65-57.95zm137.74 52.18c48.55-1.49 92.63-21.06 125.73-52.17l13.91 13.91c-36.67 34.67-85.67 56.44-139.65 57.95v-19.69zm-198.4-198.4H27.09c1.51-53.98 23.27-102.97 57.95-139.65l13.91 13.91c-31.12 33.11-50.68 77.19-52.18 125.74zm310.1 6.01c0 64.9-52.8 117.7-117.7 117.7s-117.7-52.8-117.7-117.7 52.8-117.7 117.7-117.7h.02c64.9 0 117.69 52.8 117.7 117.7-.02-.01-.02-.01-.02 0zm-123.7-192.4c-48.55 1.49-92.63 21.05-125.73 52.17L93.52 118.7c36.67-34.67 85.67-56.44 139.64-57.95v19.69zM27.09 278.83h19.68c1.49 48.55 21.05 92.63 52.17 125.73l-13.91 13.91c-34.67-36.66-56.43-85.66-57.94-139.64zM393.3 418.48l-13.91-13.91c31.12-33.1 50.68-77.18 52.17-125.73h19.68c-1.51 53.97-23.27 102.97-57.94 139.64zm89.35-154.36c-1.74 1.85-3.74 2.71-6.28 2.71H368.73c-3.06-66.75-56.81-120.51-123.56-123.56V35.62c0-2.54.86-4.53 2.71-6.27s3.9-2.48 6.43-2.33C378.3 34.54 477.47 133.7 484.99 257.69c.14 2.54-.6 4.58-2.34 6.43zm-40.55-86.64c1.41 3 .12 6.57-2.87 7.98-.83.39-1.7.57-2.55.57-2.25 0-4.41-1.27-5.43-3.45-3.06-6.49-6.49-12.91-10.19-19.06a6.011 6.011 0 0 1 2.04-8.24c2.84-1.71 6.53-.8 8.24 2.04 3.9 6.52 7.53 13.3 10.76 20.16zm-33.82-51.79c2.18 2.5 1.91 6.29-.58 8.47a5.998 5.998 0 0 1-8.47-.58c-25.93-29.77-59.44-51.68-96.92-63.35-3.16-.99-4.93-4.35-3.95-7.51s4.35-4.93 7.51-3.95c39.61 12.32 75.02 35.46 102.41 66.92zM239.17 232.37c-22.31 0-40.47 18.15-40.47 40.47s18.15 40.47 40.47 40.47c22.31 0 40.47-18.15 40.47-40.47s-18.16-40.47-40.47-40.47zm0 68.93c-15.7 0-28.47-12.77-28.47-28.47s12.77-28.47 28.47-28.47 28.47 12.77 28.47 28.47-12.78 28.47-28.47 28.47zm44.6-62.99c15.87 0 28.78-12.91 28.78-28.78s-12.91-28.78-28.78-28.78-28.78 12.91-28.78 28.78c-.01 15.86 12.91 28.78 28.78 28.78zm0-45.57c9.25 0 16.78 7.53 16.78 16.78s-7.53 16.78-16.78 16.78-16.78-7.53-16.78-16.78c-.01-9.25 7.52-16.78 16.78-16.78zm-99.61 44.98c3.02 1.01 6.1 1.49 9.12 1.49 12.04 0 23.29-7.62 27.32-19.64 5.04-15.05-3.1-31.4-18.15-36.44-7.29-2.44-15.1-1.9-21.98 1.53s-12.02 9.33-14.46 16.62-1.9 15.1 1.53 21.98 9.33 12.02 16.62 14.46zm-6.77-32.62a16.67 16.67 0 0 1 8.43-9.69 16.671 16.671 0 0 1 12.82-.89c8.77 2.94 13.52 12.47 10.58 21.25s-12.47 13.52-21.25 10.58a16.67 16.67 0 0 1-9.69-8.43c-2-4.02-2.31-8.57-.89-12.82zm5.38 68.42c-6.14-4.63-13.71-6.6-21.32-5.54s-14.36 5.03-18.99 11.16c-4.63 6.14-6.6 13.71-5.53 21.32 1.06 7.62 5.03 14.36 11.16 18.99 5.05 3.81 11.07 5.82 17.28 5.82 1.34 0 2.69-.09 4.04-.28 7.61-1.06 14.36-5.03 18.99-11.16 4.63-6.14 6.6-13.71 5.54-21.32-1.07-7.62-5.04-14.36-11.17-18.99zm-3.95 33.08c-2.7 3.58-6.63 5.89-11.07 6.51s-8.86-.53-12.43-3.23c-3.58-2.7-5.89-6.63-6.51-11.07s.53-8.86 3.23-12.43c3.3-4.37 8.33-6.67 13.42-6.67 3.52 0 7.07 1.1 10.09 3.38 3.58 2.7 5.89 6.63 6.51 11.08.61 4.44-.54 8.85-3.24 12.43zm64.63 15.38c-7.56-1.41-15.21.21-21.56 4.55-6.34 4.35-10.61 10.9-12.02 18.46s.21 15.21 4.55 21.55c5.57 8.13 14.6 12.5 23.79 12.5 5.6 0 11.27-1.63 16.23-5.03 13.09-8.97 16.44-26.92 7.47-40.02-4.35-6.33-10.9-10.6-18.46-12.01zm4.2 42.14c-7.63 5.23-18.1 3.28-23.33-4.36-2.53-3.7-3.48-8.16-2.65-12.57.82-4.41 3.31-8.23 7.01-10.76 2.83-1.94 6.1-2.94 9.45-2.94 1.03 0 2.08.1 3.12.29 4.41.82 8.23 3.31 10.76 7.01 5.23 7.63 3.28 18.1-4.36 23.33zm56.74-93.42c-15.26 4.35-24.15 20.3-19.8 35.57 3.6 12.64 15.16 20.9 27.69 20.9 2.6 0 5.25-.36 7.87-1.1 7.4-2.11 13.53-6.96 17.27-13.68s4.64-14.49 2.53-21.88c-4.34-15.27-20.3-24.15-35.56-19.81zm22.55 35.85a16.681 16.681 0 0 1-10.07 7.98c-8.9 2.54-18.21-2.64-20.74-11.54-2.54-8.9 2.64-18.21 11.54-20.74 1.53-.44 3.07-.64 4.59-.64 7.31 0 14.05 4.82 16.15 12.19 1.23 4.3.71 8.83-1.47 12.75z" fill="#ffffff" opacity="1" data-original="#000000" class=""></path></g></svg>