<svg xmlns="http://www.w3.org/2000/svg" version="1.1" xmlns:xlink="http://www.w3.org/1999/xlink" width="512" height="512" x="0" y="0" viewBox="0 0 32 32" style="enable-background:new 0 0 512 512" xml:space="preserve" class=""><g><path d="M13 5C9.42 5 0 8.382 0 16s9.42 11 13 11c4.86 0 5-9.874 5-11s-.14-11-5-11zm0 20c-2.652 0-11-2.708-11-9s8.348-9 11-9c1.853 0 3 4.672 3 9s-1.147 9-3 9zM31 15h-9a1 1 0 0 0 0 2h9a1 1 0 0 0 0-2zM31 11H21a1 1 0 0 0 0 2h10a1 1 0 0 0 0-2zM31 19H21a1 1 0 0 0 0 2h10a1 1 0 0 0 0-2zM20 9h11a1 1 0 0 0 0-2H20a1 1 0 0 0 0 2zM31 23H20a1 1 0 0 0 0 2h11a1 1 0 0 0 0-2z" fill="#ffffff" opacity="1" data-original="#000000"></path></g></svg>